<svg xmlns="http://www.w3.org/2000/svg" width="72" height="73" viewBox="0 0 72 73" fill="none"><circle cx="41.9502" cy="29.5" r="29.5" fill="url(#paint0_linear_1217_24417)"></circle><path d="M30.2499 28C39.0924 28 47.3424 31.3825 53.4824 37.5225L57.0174 33.9875C49.9349 26.9025 40.4274 23 30.2499 23C20.0724 23.0025 10.5649 26.9025 3.48242 33.9875L7.01742 37.5225C13.1574 31.3825 21.4074 28 30.2499 28ZM44.4274 48.7675C36.7424 41.0825 23.7574 41.0825 16.0724 48.7675L19.6074 52.3025C25.3749 46.535 35.1249 46.535 40.8924 52.3025L44.4274 48.7675Z" fill="black"></path><path d="M51.3427 41.2325C39.9127 29.7975 20.5902 29.7975 9.16016 41.2325L12.6952 44.7675C22.2127 35.25 38.2902 35.25 47.8077 44.7675L51.3427 41.2325Z" fill="black"></path><path d="M30.25 63C33.0114 63 35.25 60.7614 35.25 58C35.25 55.2386 33.0114 53 30.25 53C27.4886 53 25.25 55.2386 25.25 58C25.25 60.7614 27.4886 63 30.25 63Z" fill="black"></path><defs><linearGradient id="paint0_linear_1217_24417" x1="12.4502" y1="29.5" x2="112.453" y2="29.5" gradientUnits="userSpaceOnUse"><stop stop-color="#BDE0FA"></stop><stop offset="1" stop-color="#B3A5FF"></stop></linearGradient></defs></svg>