<svg xmlns="http://www.w3.org/2000/svg" width="77" height="66" viewBox="0 0 77 66" fill="none"><circle cx="47" cy="36.5" r="29.5" fill="url(#paint0_linear_1217_24426)"></circle><path d="M53 30V17.5H13C11.6739 17.5 10.4021 16.9732 9.46447 16.0355C8.52678 15.0979 8 13.8261 8 12.5C8 11.1739 8.52678 9.90215 9.46447 8.96447C10.4021 8.02678 11.6739 7.5 13 7.5H48V17.5" stroke="black" stroke-width="5" stroke-linecap="round" stroke-linejoin="round"></path><path d="M8 12.5V47.5C8 48.8261 8.52678 50.0979 9.46447 51.0355C10.4021 51.9732 11.6739 52.5 13 52.5H53V40" stroke="black" stroke-width="5" stroke-linecap="round" stroke-linejoin="round"></path><path d="M45.5 30C44.1739 30 42.9021 30.5268 41.9645 31.4645C41.0268 32.4021 40.5 33.6739 40.5 35C40.5 36.3261 41.0268 37.5979 41.9645 38.5355C42.9021 39.4732 44.1739 40 45.5 40H55.5V30H45.5Z" stroke="black" stroke-width="5" stroke-linecap="round" stroke-linejoin="round"></path><defs><linearGradient id="paint0_linear_1217_24426" x1="17.5" y1="36.5" x2="117.503" y2="36.5" gradientUnits="userSpaceOnUse"><stop stop-color="#BDE0FA"></stop><stop offset="1" stop-color="#B3A5FF"></stop></linearGradient></defs></svg>