<svg xmlns="http://www.w3.org/2000/svg" width="74" height="68" viewBox="0 0 74 68" fill="none"><circle cx="30.0498" cy="29.5" r="29.5" fill="url(#paint0_linear_1217_24436)"></circle><path d="M45.425 13.5426L66.675 25.4176C67.2988 25.729 67.8234 26.2082 68.19 26.8013C68.5565 27.3944 68.7504 28.0779 68.75 28.7751V32.3751C68.75 34.1001 67.35 35.5001 65.625 35.5001H63.75V55.5001H66.25C66.913 55.5001 67.5489 55.7635 68.0178 56.2323C68.4866 56.7012 68.75 57.3371 68.75 58.0001C68.75 58.6631 68.4866 59.299 68.0178 59.7679C67.5489 60.2367 66.913 60.5001 66.25 60.5001H21.25C20.587 60.5001 19.9511 60.2367 19.4822 59.7679C19.0134 59.299 18.75 58.6631 18.75 58.0001C18.75 57.3371 19.0134 56.7012 19.4822 56.2323C19.9511 55.7635 20.587 55.5001 21.25 55.5001H23.75V35.5001H21.875C20.15 35.5001 18.75 34.1001 18.75 32.3751V28.7751C18.75 27.4701 19.425 26.2701 20.515 25.5901L42.0725 13.5426C42.5933 13.2821 43.1677 13.1465 43.75 13.1465C44.3323 13.1465 44.9042 13.2821 45.425 13.5426ZM58.75 35.5001H28.75V55.5001H36.25V40.5001H41.25V55.5001H46.25V40.5001H51.25V55.5001H58.75V35.5001ZM43.75 18.2951L23.75 29.5451V30.5001H63.75V29.5451L43.75 18.2951ZM43.75 23.0001C44.413 23.0001 45.0489 23.2635 45.5178 23.7323C45.9866 24.2012 46.25 24.8371 46.25 25.5001C46.25 26.1631 45.9866 26.799 45.5178 27.2679C45.0489 27.7367 44.413 28.0001 43.75 28.0001C43.087 28.0001 42.4511 27.7367 41.9822 27.2679C41.5134 26.799 41.25 26.1631 41.25 25.5001C41.25 24.8371 41.5134 24.2012 41.9822 23.7323C42.4511 23.2635 43.087 23.0001 43.75 23.0001Z" fill="black"></path><defs><linearGradient id="paint0_linear_1217_24436" x1="0.549805" y1="29.5" x2="100.553" y2="29.5" gradientUnits="userSpaceOnUse"><stop stop-color="#BDE0FA"></stop><stop offset="1" stop-color="#B3A5FF"></stop></linearGradient></defs></svg>