<svg xmlns="http://www.w3.org/2000/svg" width="71" height="63" viewBox="0 0 71 63" fill="none"><circle cx="41.0293" cy="29.5" r="29.5" fill="url(#paint0_linear_1217_24410)"></circle><path d="M28.6707 44.9759C34.3965 44.9759 39.2755 42.9396 43.3078 38.867C47.3401 34.7944 49.3562 29.9356 49.3562 24.2904C49.3562 18.6452 47.3401 13.7864 43.3078 9.71379C39.2755 5.64121 34.3965 3.60492 28.6707 3.60492C23.0255 3.60492 18.1868 5.62105 14.1546 9.6533C10.1223 13.6856 8.10619 18.5646 8.10619 24.2904C8.10619 30.0162 10.1223 34.8952 14.1546 38.9275C18.1868 42.9598 23.0255 44.9759 28.6707 44.9759ZM28.6707 8.80653C32.9449 8.80653 36.5941 10.3186 39.6183 13.3428C42.6425 16.367 44.1546 20.0162 44.1546 24.2904C44.1546 28.5646 42.6425 32.2138 39.6183 35.238C36.5941 38.2622 32.9449 39.7743 28.6707 39.7743C24.3965 39.7743 20.7473 38.242 17.7231 35.1775C14.6989 32.113 13.1868 28.4839 13.1868 24.2904C13.1868 20.0969 14.6989 16.4678 17.7231 13.4033C20.7473 10.3388 24.3965 8.80653 28.6707 8.80653ZM26.1304 52.4759V55.2581C26.1304 55.9839 25.9288 56.5686 25.5255 57.0122C25.1223 57.4557 24.6788 57.6775 24.1949 57.6775L23.5901 57.7985C22.1384 57.7985 20.9086 58.3227 19.9005 59.371C18.8925 60.4194 18.3885 61.6291 18.3885 63.0001H39.0739C39.0739 61.6291 38.5497 60.4194 37.5014 59.371C36.453 58.3227 35.2433 57.7985 33.8723 57.7985C33.711 57.7985 33.4893 57.7783 33.207 57.738C32.9247 57.6977 32.5417 57.4557 32.0578 57.0122C31.5739 56.5686 31.332 55.9839 31.332 55.2581V52.4759C39.7997 51.5888 46.4933 47.8791 51.4126 41.3469C51.8159 40.7823 51.957 40.1372 51.836 39.4114C51.7151 38.6856 51.4126 38.121 50.9288 37.7178C50.3643 37.3146 49.6989 37.1735 48.9328 37.2944C48.1667 37.4154 47.6223 37.7178 47.2997 38.2017C42.703 44.4114 36.4933 47.5162 28.6707 47.5162C22.2191 47.5162 16.7352 45.2581 12.2191 40.742C7.70297 36.2259 5.4449 30.742 5.4449 24.2904C5.4449 21.3872 6.13039 18.2823 7.50135 14.9759C8.95297 12.2339 10.6062 9.93556 12.461 8.08072C13.5901 6.7904 13.5901 5.58072 12.461 4.45169C11.2514 3.24201 10.0417 3.24201 8.832 4.45169C6.17071 7.11298 4.1949 9.93556 2.90458 12.9194C1.21103 16.3065 0.364258 20.0969 0.364258 24.2904C0.364258 31.6291 2.8441 38.0001 7.80377 43.4033C12.7635 48.8065 18.8723 51.8307 26.1304 52.4759Z" fill="black"></path><defs><linearGradient id="paint0_linear_1217_24410" x1="11.5293" y1="29.5" x2="111.532" y2="29.5" gradientUnits="userSpaceOnUse"><stop stop-color="#BDE0FA"></stop><stop offset="1" stop-color="#B3A5FF"></stop></linearGradient></defs></svg>